HIERARCHY
ROOT Hips
{
    OFFSET 0.000000 0.000000 0.000000
    CHANNELS 6 Xposition Yposition Zposition Zrotation Xrotation Yrotation
    JOINT Spine
    {
        OFFSET -0.000000 7.236184 0.000000
        CHANNELS 3 Zrotation Xrotation Yrotation
        JOINT Spine1
        {
            OFFSET -0.000000 20.420147 0.000000
            CHANNELS 3 Zrotation Xrotation Yrotation
            JOINT Neck
            {
                OFFSET -0.000000 20.336288 1.848754
                CHANNELS 3 Zrotation Xrotation Yrotation
                JOINT Head
                {
                    OFFSET -0.000000 12.354461 -1.764923
                    CHANNELS 3 Zrotation Xrotation Yrotation
                    End Site
                    {
                        OFFSET -0.000000 22.061537 0.000000
                    }
                }
            }
            JOINT LeftShoulder
            {
                OFFSET 3.573296 18.396038 -0.314103
                CHANNELS 3 Zrotation Xrotation Yrotation
                JOINT LeftArm
                {
                    OFFSET 10.880760 0.000000 0.000000
                    CHANNELS 3 Zrotation Xrotation Yrotation
                    JOINT LeftForeArm
                    {
                        OFFSET 27.185530 0.000000 0.000000
                        CHANNELS 3 Zrotation Xrotation Yrotation
                        JOINT LeftHand
                        {
                            OFFSET 27.825975 0.000000 0.000000
                            CHANNELS 3 Zrotation Xrotation Yrotation
                            End Site
                            {
                                OFFSET 13.236923 0.000000 0.000000
                            }
                        }
                    }
                }
            }
            JOINT RightShoulder
            {
                OFFSET -3.474926 18.396038 -0.314103
                CHANNELS 3 Zrotation Xrotation Yrotation
                JOINT RightArm
                {
                    OFFSET -10.880760 0.000000 0.000000
                    CHANNELS 3 Zrotation Xrotation Yrotation
                    JOINT RightForeArm
                    {
                        OFFSET -27.185530 0.000000 0.000000
                        CHANNELS 3 Zrotation Xrotation Yrotation
                        JOINT RightHand
                        {
                            OFFSET -27.825975 0.000000 0.000000
                            CHANNELS 3 Zrotation Xrotation Yrotation
                            End Site
                            {
                                OFFSET -13.236923 0.000000 0.000000
                            }
                        }
                    }
                }
            }
        }
    }
    JOINT LeftUpLeg
    {
        OFFSET 8.824615 0.000000 0.000000
        CHANNELS 3 Zrotation Xrotation Yrotation
        JOINT LeftLeg
        {
            OFFSET -0.000000 -35.111282 0.000000
            CHANNELS 3 Zrotation Xrotation Yrotation
            JOINT LeftFoot
            {
                OFFSET -0.000000 -42.324711 0.000000
                CHANNELS 3 Zrotation Xrotation Yrotation
                JOINT LeftToeBase
                {
                    OFFSET -0.000000 -5.735999 13.236923
                    CHANNELS 3 Zrotation Xrotation Yrotation
                    End Site
                    {
                        OFFSET -0.000000 0.000000 3.529846
                    }
                }
            }
        }
    }
    JOINT RightUpLeg
    {
        OFFSET -8.824615 0.000000 0.000000
        CHANNELS 3 Zrotation Xrotation Yrotation
        JOINT RightLeg
        {
            OFFSET -0.000000 -35.111282 0.000000
            CHANNELS 3 Zrotation Xrotation Yrotation
            JOINT RightFoot
            {
                OFFSET -0.000000 -42.324711 0.000000
                CHANNELS 3 Zrotation Xrotation Yrotation
                JOINT RightToeBase
                {
                    OFFSET -0.000000 -5.735999 13.236923
                    CHANNELS 3 Zrotation Xrotation Yrotation
                    End Site
                    {
                        OFFSET -0.000000 0.000000 3.529846
                    }
                }
            }
        }
    }
}
MOTION
Frames:    14
Frame Time:    0.008333
-4.260124    83.150108    105.863060    0.358914    -8.191390    177.991837    -3.935325    -11.225879    -4.747445    -1.068015    7.614410    -4.289478    8.101256    12.890897    2.730998    1.418511    -1.182046    2.802703    5.675088    3.132623    -13.426157    -42.566463    -19.395638    -35.248714    11.140104    -39.421223    -100.722282    10.753959    -27.700621    5.909822    6.680138    19.638374    -10.774970    54.298756    33.821766    12.375033    -3.071639    -1.393701    23.936985    -21.425669    -1.392649    3.435137    5.922269    -11.568976    1.445663    -1.293163    17.461994    5.807613    -6.033210    -10.070656    -12.657637    -0.007152    -0.118269    0.007929    -17.441498    -36.363235    -1.234806    8.126071    50.929359    -1.139051    12.398418    5.811649    -13.054240    0.524212    -1.676674    -0.568297
-4.503917    83.180916    105.975594    0.574149    -7.972606    177.216660    -3.951028    -10.971752    -5.098432    -1.304550    7.908575    -4.628671    8.314746    12.940723    3.161144    1.264977    -1.093235    3.222985    5.503750    3.456913    -13.796177    -43.339329    -19.499159    -36.058342    10.673167    -39.478714    -102.445290    11.275427    -27.904730    5.755111    6.747859    19.765882    -10.806308    54.696548    34.939140    12.438951    -2.770796    -1.514210    23.667377    -20.475887    -1.523175    3.262881    6.029179    -11.289307    1.611488    -1.327764    17.528065    6.175112    -5.921895    -10.254198    -12.452743    -0.003383    -0.069685    0.003750    -16.937332    -37.991169    -0.622713    8.609408    52.769608    -1.351473    12.494723    6.149524    -12.927998    0.461982    -1.500317    -0.500709
-4.733510    83.212349    106.086052    0.791216    -7.762955    176.430069    -3.952117    -10.728091    -5.431537    -1.565399    8.202245    -4.948087    8.508342    12.987476    3.584320    1.124721    -1.015625    3.638921    5.334335    3.787535    -14.141810    -44.129230    -19.567886    -36.854256    10.210268    -39.502041    -104.106674    11.742867    -28.100578    5.588073    6.804404    19.876907    -10.837479    55.043118    36.085712    12.483816    -2.499695    -1.542777    23.495438    -19.506155    -1.561469    3.131926    6.144386    -11.029107    1.786563    -1.363537    17.620245    6.576131    -5.824857    -10.428209    -12.277737    -0.002072    -0.030548    0.002297    -16.364504    -39.601692    -0.020584    9.112523    54.560471    -1.612484    12.585915    6.437615    -12.802861    0.402963    -1.368287    -0.436662
-4.945643    83.243462    106.192017    1.004647    -7.566549    175.649414    -3.940292    -10.498993    -5.739698    -1.842500    8.488365    -5.240826    8.677102    13.028431    3.990299    1.003181    -0.951987    4.040527    5.172135    4.116917    -14.455268    -44.928295    -19.602800    -37.627701    9.760787    -39.494347    -105.680840    12.143465    -28.285919    5.417161    6.850788    19.969854    -10.869033    55.337540    37.225082    12.510847    -2.259387    -1.486281    23.408939    -18.546970    -1.513947    3.034835    6.264525    -10.792779    1.971193    -1.398835    17.735600    6.988774    -5.742758    -10.591230    -12.128236    -0.002814    -0.000840    0.003119    -15.737751    -41.161613    0.560513    9.621406    56.270622    -1.911801    12.667065    6.680937    -12.680025    0.351341    -1.275156    -0.380673
-5.157960    83.276245    106.301842    1.231158    -7.368063    174.813293    -3.916528    -10.267290    -6.047124    -2.155315    8.790882    -5.529482    8.835973    13.065755    4.410494    0.887273    -0.899493    4.458143    5.004508    4.471154    -14.759826    -45.802849    -19.605637    -38.446770    9.289725    -39.454422    -107.291183    12.498408    -28.476122    5.223788    6.893028    20.052450    -10.903462    55.604828    38.437290    12.523114    -2.028356    -1.349558    23.389227    -17.530775    -1.385549    2.955559    6.399055    -10.561377    2.184546    -1.435655    17.883268    7.434812    -5.668569    -10.758115    -11.986748    -0.005890    0.023581    0.006528    -15.002609    -42.795059    1.169564    10.170736    58.039719    -2.266355    12.742925    6.907730    -12.547324    0.305024    -1.206549    -0.330458
-5.355719    83.307785    106.407501    1.453879    -7.180885    173.979614    -3.882738    -10.047343    -6.331105    -2.482394    9.086462    -5.792419    8.973511    13.095361    4.814386    0.785241    -0.863294    4.861187    4.845229    4.825168    -15.032318    -46.701908    -19.575188    -39.257122    8.832977    -39.387753    -108.829712    12.778734    -28.657084    5.028734    6.928471    20.117916    -10.936731    55.830101    39.626572    12.518118    -1.821437    -1.144630    23.433191    -16.536093    -1.187359    2.892145    6.537712    -10.350410    2.414457    -1.470796    18.053959    7.879703    -5.607684    -10.918755    -11.862202    -0.011303    0.042209    0.012528    -14.206144    -44.387054    1.765978    10.720444    59.748039    -2.646385    12.806661    7.104242    -12.410656    0.268455    -1.163456    -0.290822
-5.548832    83.338783    106.513718    1.682187    -6.996028    173.112320    -3.839660    -9.828159    -6.604939    -2.835368    9.387224    -6.041888    9.097293    13.118388    5.219670    0.689810    -0.842187    5.266735    4.686779    5.195384    -15.285436    -47.665554    -19.510160    -40.097813    8.373004    -39.293583    -110.364738    12.995546    -28.835987    4.821805    6.960671    20.171276    -10.970092    56.025795    40.835545    12.497413    -1.626293    -0.875764    23.531481    -15.525976    -0.923474    2.833623    6.685667    -10.148815    2.670662    -1.506228    18.253777    8.341301    -5.555950    -11.082200    -11.747257    -0.018742    0.058142    0.020772    -13.310828    -46.009148    2.383564    11.297419    61.476749    -3.063448    12.862234    7.284241    -12.263595    0.239873    -1.137255    -0.259849
-5.724227    83.366302    106.612625    1.898602    -6.825458    172.275101    -3.792130    -9.622346    -6.849089    -3.185738    9.668575    -6.260337    9.199939    13.132373    5.596639    0.605044    -0.836477    5.644401    4.540758    5.554550    -15.502842    -48.626205    -19.416855    -40.906845    7.946681    -39.184616    -111.791145    13.142577    -28.998585    4.625785    6.987501    20.210897    -11.000825    56.182617    41.966545    12.464916    -1.454428    -0.573532    23.667641    -14.581043    -0.624288    2.777472    6.830550    -9.968427    2.932161    -1.539755    18.466009    8.787155    -5.515496    -11.238014    -11.649235    -0.026877    0.072816    0.029788    -12.383862    -47.543476    2.986106    11.872206    63.105274    -3.489617    12.906586    7.435743    -12.116982    0.220987    -1.125177    -0.239386
-5.901024    83.392570    106.714439    2.124933    -6.650832    171.382950    -3.739030    -9.408921    -7.089627    -3.564367    9.961027    -6.471147    9.292844    13.136863    5.984256    0.520039    -0.843047    6.032686    4.390282    5.938898    -15.708232    -49.676136    -19.285883    -41.768234    7.511513    -39.050869    -113.252487    13.238232    -29.161148    4.416111    7.013258    20.244448    -11.033667    56.315258    43.129780    12.423401    -1.284947    -0.223780    23.845114    -13.610703    -0.274784    2.711668    6.986332    -9.787914    3.221969    -1.576766    18.709183    9.264156    -5.480178    -11.403531    -11.555623    -0.034936    0.089423    0.038719    -11.325961    -49.147694    3.650136    12.519653    64.803299    -3.975721    12.946813    7.578238    -11.958787    0.209616    -1.122012    -0.227067
-6.056820    83.413498    106.805763    2.331120    -6.493950    170.551743    -3.688226    -9.213704    -7.295321    -3.919879    10.225673    -6.647201    9.364758    13.130282    6.332286    0.444270    -0.860484    6.380836    4.255451    6.295445    -15.876719    -50.681332    -19.134920    -42.565971    7.126505    -38.916737    -114.566902    13.281139    -29.302696    4.228086    7.033913    20.267941    -11.063864    56.411438    44.167648    12.380424    -1.138348    0.119458    24.033419    -12.748235    0.066696    2.641435    7.131804    -9.628319    3.498441    -1.613851    18.949303    9.714298    -5.452967    -11.558222    -11.477742    -0.040584    0.108212    0.044977    -10.275375    -50.613838    4.298811    13.176484    66.353676    -4.470894    12.978449    7.692398    -11.809459    0.207680    -1.126503    -0.224971
-6.220760    83.432564    106.903267    2.555073    -6.326207    169.632645    -3.633611    -9.004130    -7.504920    -4.312259    10.515364    -6.821751    9.430327    13.108578    6.704612    0.362152    -0.888074    6.752165    4.110196    6.686884    -16.039661    -51.813335    -18.936316    -43.444828    6.721246    -38.758194    -115.966637    13.277123    -29.451218    4.018639    7.055141    20.286474    -11.097654    56.486706    45.267834    12.331885    -0.985676    0.500122    24.257666    -11.841939    0.447238    2.550875    7.293638    -9.458663    3.806734    -1.660534    19.226431    10.222470    -5.427158    -11.730546    -11.400597    -0.043380    0.131883    0.048074    -9.032284    -52.206505    5.065398    13.981327    68.037216    -5.080520    13.009297    7.803650    -11.646149    0.215235    -1.138374    -0.233160
-6.370641    83.446281    106.993462    2.766511    -6.169528    168.748795    -3.582271    -8.807170    -7.689138    -4.688702    10.790953    -6.970132    9.480687    13.072845    7.050641    0.283653    -0.922584    7.095879    3.975001    7.057068    -16.175545    -52.923706    -18.713091    -44.280556    6.353761    -38.604340    -117.268120    13.231068    -29.588741    3.822397    7.073711    20.295107    -11.128479    56.534935    46.274128    12.282637    -0.846609    0.858267    24.483051    -11.024494    0.805357    2.450494    7.449832    -9.300172    4.100188    -1.713062    19.502642    10.730520    -5.405535    -11.897635    -11.337657    -0.040965    0.157126    0.045396    -7.752805    -53.709904    5.862262    14.867376    69.628227    -5.756230    13.034739    7.894780    -11.491108    0.233655    -1.156769    -0.253120
-6.506253    83.454895    107.075691    2.963938    -6.024527    167.912460    -3.534991    -8.624693    -7.849269    -5.043652    11.050665    -7.094445    9.517793    13.026731    7.368201    0.209230    -0.962102    7.409983    3.850216    7.399921    -16.288450    -53.990749    -18.472694    -45.058441    6.025882    -38.462818    -118.464012    13.153385    -29.717415    3.640975    7.089996    20.294333    -11.153941    56.563828    47.178539    12.232447    -0.720497    1.181669    24.698627    -10.303473    1.128012    2.343834    7.598458    -9.152914    4.370579    -1.771707    19.771496    11.237336    -5.387193    -12.056624    -11.291387    -0.032686    0.181577    0.036219    -6.459549    -55.108162    6.681754    15.843355    71.110832    -6.510181    13.055066    7.968014    -11.347666    0.261811    -1.180458    -0.283631
-6.648639    83.459717    107.162521    3.178359    -5.868992    166.998932    -3.485892    -8.430065    -8.011158    -5.429118    11.336031    -7.214985    9.548338    12.964060    7.705832    0.127030    -1.012118    7.742415    3.714781    7.765135    -16.397287    -55.167583    -18.179024    -45.892292    5.685664    -38.311680    -119.733597    13.031343    -29.859432    3.442332    7.108767    20.284246    -11.176973    56.577271    48.117290    12.174272    -0.587369    1.511483    24.931061    -9.572373    1.455622    2.216726    7.762955    -8.994124    4.655045    -1.847713    20.072966    11.824656    -5.368710    -12.231091    -11.257154    -0.016088    0.206437    0.017827    -4.942432    -56.610435    7.663956    17.105173    72.706612    -7.506676    13.074354    8.038464    -11.197609    0.302928    -1.211660    -0.328189
